<svg xmlns="http://www.w3.org/2000/svg" viewBox="0 0 509 509"><defs><style>.cls-1{fill:gray;}.cls-2{font-size:72px;font-family:BerlinSansFBDemi-Bold, Berlin Sans FB Demi;font-weight:700;}.cls-3{letter-spacing:0.25em;}.cls-4{fill:#3e4347;}.cls-5{fill:#62696d;}.cls-6{fill:#c94747;}.cls-7{fill:#b23838;}.cls-8{opacity:0.3;isolation:isolate;}.cls-9{fill:#ffc7ce;}.cls-10{fill:#ed4c5c;}.cls-11{opacity:0.5;}.cls-12{fill:#ffe6ea;}.cls-13{fill:#f15744;}.cls-14{fill:#ffb300;}.cls-15{fill:#ffdd67;}.cls-16{fill:#f16a65;}.cls-17{fill:#468bc4;}.cls-18{fill:#454749;}.cls-19{fill:#fbbf67;}.cls-20{fill:#f5f5f5;}.cls-21{fill:#664e27;}.cls-22{fill:#231f20;}.cls-23{fill:#937237;}</style></defs><title>logo</title><g id="Layer_1" data-name="Layer 1"><path class="cls-1" d="M256.5,510.5A254,254,0,0,1,76.9,76.9,254,254,0,0,1,436.11,436.11,252.36,252.36,0,0,1,256.5,510.5Z" transform="translate(-2 -2)"/><path d="M256.5,3a253.57,253.57,0,0,1,98.67,487.08A253.57,253.57,0,0,1,157.83,22.92,251.87,251.87,0,0,1,256.5,3m0-1C115.94,2,2,115.94,2,256.5S115.94,511,256.5,511,511,397.06,511,256.5,397.06,2,256.5,2Z" transform="translate(-2 -2)"/><text class="cls-2" transform="translate(44.24 239.24)">Criminal <tspan class="cls-3" x="0" y="86.4" xml:space="preserve">			</tspan><tspan x="108" y="86.4">Alert</tspan></text><path class="cls-4" d="M374.93,316.6v4c0,2.19,9.51,4,21.25,4s21.24-1.78,21.24-4v-4Z" transform="translate(-2 -2)"/><path class="cls-5" d="M378.16,316.6v4c0,2.19,8.06,4,18,4s18-1.78,18-4v-4Z" transform="translate(-2 -2)"/><polygon class="cls-6" points="415.42 314.6 372.93 314.6 377.58 291.03 410.77 291.03 415.42 314.6"/><ellipse class="cls-7" cx="394.18" cy="314.6" rx="21.24" ry="3.97"/><g class="cls-8"><path class="cls-9" d="M414.15,316.34,410.25,293H382.1l-3.9,23.31a.78.78,0,0,0,0,.26c0,2.19,8.06,4,18,4s18-1.78,18-4A.8.8,0,0,0,414.15,316.34Z" transform="translate(-2 -2)"/></g><ellipse class="cls-10" cx="394.18" cy="291.03" rx="16.6" ry="3.97"/><g class="cls-11"><path class="cls-6" d="M382.31,293.46c0-.66.6-1.12,1.1-1.44a9.86,9.86,0,0,1,1.71-.8,23.83,23.83,0,0,1,3.63-.92,42,42,0,0,1,7.43-.63,43.16,43.16,0,0,1,7.43.62,25.3,25.3,0,0,1,3.62.93,9.86,9.86,0,0,1,1.71.8c.5.32,1.11.78,1.1,1.44-.09-.64-.71-1-1.22-1.22a8.71,8.71,0,0,0-1.72-.58,23.23,23.23,0,0,0-3.6-.65,61.74,61.74,0,0,0-7.33-.4,64,64,0,0,0-7.32.39,25.87,25.87,0,0,0-3.6.65,9.44,9.44,0,0,0-1.72.59C383,292.5,382.4,292.82,382.31,293.46Z" transform="translate(-2 -2)"/></g><g class="cls-8"><ellipse class="cls-9" cx="394.18" cy="303.04" rx="12.61" ry="12.57"/></g><polygon class="cls-12" points="406.13 303.05 398.74 301.2 402.81 294.44 396.02 298.5 394.18 291.14 392.33 298.5 385.55 294.44 389.62 301.2 382.23 303.05 389.62 304.89 385.55 311.64 392.33 307.59 394.18 314.95 396.02 307.59 402.81 311.64 398.74 304.89 406.13 303.05"/><polygon class="cls-13" points="417.5 272.88 410.07 283.97 422.14 277.42 417.5 272.88"/><polygon class="cls-13" points="370.86 272.88 378.28 283.97 366.21 277.42 370.86 272.88"/><polygon class="cls-13" points="364.18 287.05 375.41 290.8 364.18 292.37 364.18 287.05"/><polygon class="cls-13" points="424.18 287.05 412.94 290.8 424.18 292.37 424.18 287.05"/><polygon class="cls-13" points="380.34 269.11 387.9 282.45 386.39 268.17 380.34 269.11"/><polygon class="cls-13" points="408.01 269.11 400.46 282.45 401.96 268.17 408.01 269.11"/><polygon class="cls-14" points="369.1 205.56 370.04 216.81 418.79 216.81 419.72 205.56 369.1 205.56"/><path class="cls-15" d="M373.91,216v-8.44h45V216s3.75,0,3.75,4.69-3.75,4.68-3.75,4.68c0,7.5-16.87,14.07-22.5,14.07s-22.5-6.57-22.5-14.07c0,0-3.75,0-3.75-4.68S373.91,216,373.91,216Z" transform="translate(-2 -2)"/><path class="cls-16" d="M396.38,185.06c-15.81,0-22.68,12.67-25,15.85-2.52,3.4-.26,9.51-.26,9.51s.26,2.77,25.32,2.77,25.32-2.77,25.32-2.77,2.25-6.11-.26-9.51C419.11,197.71,412.2,185.06,396.38,185.06Z" transform="translate(-2 -2)"/><path class="cls-17" d="M383.51,203.33c1.29-3.15,4.43-13.26,10.74-18.27-14.3,1.08-20.66,12.73-22.9,15.76-2.52,3.4-.26,9.51-.26,9.51s.17,1.65,11.75,2.4C382.54,210,382.41,206,383.51,203.33Z" transform="translate(-2 -2)"/><path class="cls-17" d="M409.31,203.33c-1.29-3.15-4.42-13.26-10.74-18.27,14.3,1.08,20.66,12.73,22.9,15.76,2.52,3.4.26,9.51.26,9.51s-.17,1.65-11.75,2.4C410.28,210,410.41,206,409.31,203.33Z" transform="translate(-2 -2)"/><ellipse class="cls-6" cx="394.39" cy="184" rx="3.75" ry="2.81"/><path class="cls-18" d="M396.41,204.19c-15.16,0-22.39-.89-25.85-1.72-1.13,3.43.53,7.95.53,7.95s.26,2.77,25.32,2.77,25.32-2.77,25.32-2.77,1.66-4.52.53-7.95C418.8,203.3,411.56,204.19,396.41,204.19Z" transform="translate(-2 -2)"/><circle class="cls-19" cx="394.41" cy="206.5" r="3.75"/><path class="cls-20" d="M385.16,214.86c-4.69,0-6.56,1.69-6.56,3.38s0,4.12,6.19,4.12c6,0,6.93-.74,6.93-3.27C391.72,217.4,389.85,214.86,385.16,214.86Z" transform="translate(-2 -2)"/><circle class="cls-21" cx="383.63" cy="215.73" r="4.22"/><path class="cls-22" d="M387,217.73a1.41,1.41,0,0,1-2.82,0,1.41,1.41,0,0,1,2.82,0Z" transform="translate(-2 -2)"/><path class="cls-21" d="M378.6,218.2c0-6.56,13.12-6.56,13.12.94C389.85,213.51,380.47,213.51,378.6,218.2Z" transform="translate(-2 -2)"/><path class="cls-20" d="M407.66,214.86c4.69,0,6.56,1.69,6.56,3.38s0,4.12-6.19,4.12c-6,0-6.93-.74-6.93-3.27C401.1,217.4,403,214.86,407.66,214.86Z" transform="translate(-2 -2)"/><circle class="cls-21" cx="405.19" cy="215.73" r="4.22"/><path class="cls-22" d="M405.79,217.73a1.41,1.41,0,1,0,1.4-1.4A1.41,1.41,0,0,0,405.79,217.73Z" transform="translate(-2 -2)"/><path class="cls-21" d="M414.22,218.2c0-6.56-13.12-6.56-13.12.94C403,213.51,412.35,213.51,414.22,218.2Z" transform="translate(-2 -2)"/><path class="cls-23" d="M404.85,229c0,3.22-4.22,4.82-8.44,4.82S388,232.21,388,229a.8.8,0,0,1,.85-.8H404A.8.8,0,0,1,404.85,229Z" transform="translate(-2 -2)"/></g></svg>